<?xml version="1.0" encoding="iso-8859-1"?>
<!-- Generator: Adobe Illustrator 19.0.0, SVG Export Plug-In . SVG Version: 6.00 Build 0)  -->
<svg version="1.1" id="Capa_1" xmlns="http://www.w3.org/2000/svg" xmlns:xlink="http://www.w3.org/1999/xlink" x="0px" y="0px"
	 viewBox="0 0 512 512" style="enable-background:new 0 0 512 512;" xml:space="preserve">
<g>
	<g>
		<rect x="212.65" y="378.67" width="30" height="42.667"/>
	</g>
</g>
<g>
	<g>
		<rect x="269.35" y="378.67" width="30" height="42.667"/>
	</g>
</g>
<g>
	<g>
		<rect x="212.65" y="282.67" width="30" height="42.667"/>
	</g>
</g>
<g>
	<g>
		<rect x="269.35" y="282.67" width="30" height="42.667"/>
	</g>
</g>
<g>
	<g>
		<rect x="212.65" y="186.67" width="30" height="42.667"/>
	</g>
</g>
<g>
	<g>
		<rect x="269.35" y="186.67" width="30" height="42.667"/>
	</g>
</g>
<g>
	<g>
		<rect x="212.65" y="90.67" width="30" height="42.667"/>
	</g>
</g>
<g>
	<g>
		<rect x="269.35" y="90.67" width="30" height="42.667"/>
	</g>
</g>
<g>
	<g>
		<path d="M471.5,450.256c23.336-6.562,40.5-28.019,40.5-53.423c0-7.828-2.331-22.012-22.484-54.68
			c-10.347-16.773-20.55-30.526-20.979-31.104L456.5,294.862l-12.037,16.188c-0.429,0.578-10.632,14.331-20.979,31.104
			c-3.363,5.452-6.221,10.378-8.663,14.857V85.333h-54.853V0H152.031v85.333H97.179V357.01c-2.442-4.479-5.299-9.405-8.663-14.856
			c-10.347-16.773-20.55-30.526-20.979-31.104L55.5,294.862L43.463,311.05c-0.429,0.578-10.632,14.331-20.979,31.104
			C2.331,374.821,0,389.005,0,396.833c0,25.405,17.164,46.862,40.5,53.423V482H0v30h512v-30h-40.5V450.256z M30,396.833
			c0-8.081,11.75-29.913,25.503-50.695C69.253,366.909,81,388.736,81,396.833c0,14.061-11.439,25.5-25.5,25.5S30,410.894,30,396.833
			z M97.179,482H70.5v-31.744c10.468-2.943,19.688-8.881,26.679-16.834V482z M152.032,482h-24.853V115.333h24.853V482z M329.968,482
			H182.031V30h147.937V482z M384.821,482h-24.853V115.333h24.853V482z M441.5,482h-26.679v-48.578
			c6.99,7.953,16.211,13.891,26.679,16.834V482z M431,396.833c0-8.081,11.75-29.913,25.503-50.695
			C470.253,366.909,482,388.736,482,396.833c0,14.061-11.439,25.5-25.5,25.5C442.439,422.333,431,410.894,431,396.833z"/>
	</g>
</g>
<g>
</g>
<g>
</g>
<g>
</g>
<g>
</g>
<g>
</g>
<g>
</g>
<g>
</g>
<g>
</g>
<g>
</g>
<g>
</g>
<g>
</g>
<g>
</g>
<g>
</g>
<g>
</g>
<g>
</g>
</svg>
