<svg id="Capa_1" fill="#000" enable-background="new 0 0 512 512" height="512" viewBox="0 0 512 512" width="512" xmlns="http://www.w3.org/2000/svg"><g><g><g><path d="m314.76 121.699c-2.178 0-4.336-.943-5.819-2.763l-13.771-16.904-13.77 16.904c-1.424 1.748-3.56 2.763-5.815 2.763s-4.391-1.015-5.815-2.763l-13.77-16.904-13.771 16.904c-1.424 1.748-3.56 2.763-5.815 2.763s-4.391-1.015-5.815-2.763l-13.77-16.904-13.771 16.904c-2.616 3.21-7.341 3.692-10.552 1.077-3.211-2.616-3.694-7.34-1.078-10.552l19.585-24.042c1.424-1.748 3.56-2.763 5.815-2.763 2.255 0 4.391 1.015 5.815 2.763l13.77 16.904 13.771-16.904c1.424-1.748 3.56-2.763 5.815-2.763s4.391 1.015 5.815 2.763l13.771 16.904 13.77-16.904c1.424-1.748 3.56-2.763 5.815-2.763s4.391 1.015 5.815 2.763l19.585 24.042c2.616 3.212 2.133 7.936-1.078 10.552-1.391 1.134-3.067 1.686-4.732 1.686z"/></g><path d="m312.65 174.854h-116.755c-4.142 0-7.5-3.357-7.5-7.5s3.358-7.5 7.5-7.5h116.755c4.142 0 7.5 3.357 7.5 7.5s-3.358 7.5-7.5 7.5z"/><path d="m312.65 213.86h-116.755c-4.142 0-7.5-3.357-7.5-7.5s3.358-7.5 7.5-7.5h116.755c4.142 0 7.5 3.357 7.5 7.5s-3.358 7.5-7.5 7.5z"/><path d="m295.81 252.867h-83.075c-4.142 0-7.5-3.357-7.5-7.5s3.358-7.5 7.5-7.5h83.075c4.142 0 7.5 3.357 7.5 7.5s-3.358 7.5-7.5 7.5z"/></g><g><path d="m376.21 80.14c-17.952 0-32.557-14.605-32.557-32.557 0-4.15-3.364-7.513-7.513-7.513h-160.28c-4.149 0-7.513 3.363-7.513 7.513 0 17.952-14.605 32.557-32.557 32.557-4.149 0-7.513 3.363-7.513 7.513v145.444c0 4.15 3.364 7.513 7.513 7.513s7.513-3.363 7.513-7.513v-138.524c20.233-3.222 36.255-19.245 39.478-39.477h146.438c3.223 20.233 19.245 36.255 39.478 39.477v283.679c-20.233 3.222-36.255 19.245-39.478 39.477h-25.235v-15.553c12.128-12.228 19.634-29.046 19.634-47.588 0-37.285-30.333-67.618-67.618-67.618s-67.618 30.333-67.618 67.618c0 18.542 7.506 35.361 19.634 47.588v15.553h-25.235c-3.223-20.233-19.245-36.255-39.478-39.477v-112.408c0-4.15-3.364-7.513-7.513-7.513s-7.513 3.363-7.513 7.513v119.328c0 4.15 3.364 7.513 7.513 7.513 17.952 0 32.557 14.605 32.557 32.557 0 4.15 3.364 7.513 7.513 7.513h32.156v25.044h-67.217c-20.714 0-37.566-16.852-37.566-37.566v-372.65c0-12.586-4.921-24.038-12.929-32.557h280.896c20.714 0 37.566 16.852 37.566 37.566v20.636c0 4.15 3.364 7.513 7.513 7.513s7.513-3.363 7.513-7.513v-20.636c.001-28.999-23.592-52.592-52.591-52.592h-315.551c-26.237 0-47.583 21.346-47.583 47.583v70.122c0 4.15 3.364 7.513 7.513 7.513h72.627v295.015c0 28.999 23.592 52.592 52.592 52.592h67.217v31.725c1.12 6.268 4.737 8.512 10.85 6.731l37.134-18.41 37.133 18.411c4.557 2.257 10.85-1.03 10.85-6.731v-31.725h55.357c4.149 0 7.513-3.363 7.513-7.513s-3.364-7.513-7.513-7.513h-55.357v-25.044h32.156c4.149 0 7.513-3.363 7.513-7.513 0-17.952 14.605-32.557 32.557-32.557 4.149 0 7.513-3.363 7.513-7.513v-297.52c.001-4.15-3.363-7.513-7.512-7.513zm-353.116-32.557c0-17.952 14.605-32.557 32.557-32.557s32.557 14.605 32.557 32.557v62.609h-65.114zm232.906 254.413c28.999 0 52.592 23.593 52.592 52.592s-23.593 52.591-52.592 52.591-52.592-23.593-52.592-52.592 23.593-52.591 52.592-52.591zm32.957 190.443-29.62-14.686c-2.103-1.043-4.571-1.043-6.675 0l-29.62 14.686v-78.84c9.758 5.472 20.996 8.607 32.957 8.607s23.199-3.135 32.957-8.607v78.84z"/><path d="m256 386.946c17.843 0 32.359-14.516 32.359-32.358s-14.516-32.359-32.359-32.359-32.359 14.516-32.359 32.358 14.516 32.359 32.359 32.359zm0-49.691c9.557 0 17.332 7.775 17.332 17.332s-7.775 17.332-17.332 17.332-17.332-7.775-17.332-17.332c0-9.556 7.775-17.332 17.332-17.332z"/><path d="m496.42 347.607h-72.627v-241.642c0-4.15-3.364-7.513-7.513-7.513s-7.513 3.363-7.513 7.513v319.277c0 12.586 4.921 24.038 12.929 32.557h-29.608c-4.149 0-7.513 3.363-7.513 7.513s3.364 7.513 7.513 7.513h64.262c26.237 0 47.583-21.346 47.583-47.583v-70.122c0-4.15-3.364-7.513-7.513-7.513zm-7.514 77.635c0 17.952-14.605 32.557-32.557 32.557s-32.557-14.605-32.557-32.557v-62.609h65.114z"/></g></g></svg>